<?xml version="1.0" encoding="UTF-8"?>
<svg width="20px" height="20px" viewBox="0 0 20 20" version="1.1" xmlns="http://www.w3.org/2000/svg" xmlns:xlink="http://www.w3.org/1999/xlink">
    <!-- Generator: Sketch 50 (54983) - http://www.bohemiancoding.com/sketch -->
    <title>instagram-logo</title>
    <desc>Created with Sketch.</desc>
    <defs></defs>
    <g id="Symbols" stroke="none" stroke-width="1" fill="none" fill-rule="evenodd">
        <g id="Element/Footer" transform="translate(-1166.000000, -160.000000)" fill="#707E8C" fill-rule="nonzero">
            <g id="Element/Footer-Copy">
                <g>
                    <g id="Group" transform="translate(1024.000000, 146.000000)">
                        <g id="instagram-logo" transform="translate(142.000000, 14.000000)">
                            <path d="M14.4806047,0 L5.51915865,0 C2.47589642,0 0,2.47601472 0,5.51927695 L0,14.480723 C0,17.5241036 2.47589642,20 5.51915865,20 L14.4806047,20 C17.5241036,20 20,17.5239853 20,14.480723 L20,5.51927695 C20.0001183,2.47601472 17.5241036,0 14.4806047,0 Z M18.2256214,14.480723 C18.2256214,16.545646 16.545646,18.2255031 14.480723,18.2255031 L5.51915865,18.2255031 C3.45435402,18.2256214 1.77449693,16.545646 1.77449693,14.480723 L1.77449693,5.51927695 C1.77449693,3.45447232 3.45435402,1.77449693 5.51915865,1.77449693 L14.4806047,1.77449693 C16.5455277,1.77449693 18.2255031,3.45447232 18.2255031,5.51927695 L18.2255031,14.480723 L18.2256214,14.480723 Z" id="Shape"></path>
                            <path d="M9.82142857,4.64285714 C6.96592128,4.64285714 4.64285714,6.9659746 4.64285714,9.82154745 C4.64285714,12.6770014 6.96592128,15 9.82142857,15 C12.6769359,15 15,12.6770014 15,9.82154745 C15,6.9659746 12.6769359,4.64285714 9.82142857,4.64285714 Z M9.82142857,13.2167084 C7.94925904,13.2167084 6.42598896,11.6936411 6.42598896,9.82142857 C6.42598896,7.94909718 7.94914016,6.42591102 9.82142857,6.42591102 C11.693717,6.42591102 13.2168682,7.94909718 13.2168682,9.82142857 C13.2168682,11.6936411 11.6935981,13.2167084 9.82142857,13.2167084 Z" id="Shape"></path>
                            <path d="M15.1785714,3.21428571 C14.8501623,3.21428571 14.5275487,3.34724026 14.2956169,3.58019481 C14.0625487,3.81201299 13.9285714,4.13474026 13.9285714,4.46428571 C13.9285714,4.79280844 14.0626623,5.11542208 14.2956169,5.34837662 C14.5274351,5.58019481 14.8501623,5.71428571 15.1785714,5.71428571 C15.5081169,5.71428571 15.8297078,5.58019481 16.0626623,5.34837662 C16.2956169,5.11542208 16.4285714,4.79269481 16.4285714,4.46428571 C16.4285714,4.13474026 16.2956169,3.81201299 16.0626623,3.58019481 C15.8308442,3.34724026 15.5081169,3.21428571 15.1785714,3.21428571 Z" id="Shape"></path>
                        </g>
                    </g>
                </g>
            </g>
        </g>
    </g>
</svg>